{
    "asset" : {
        "generator" : "Khronos glTF Blender I/O v3.3.32",
        "version" : "2.0"
    },
    "scene" : 0,
    "scenes" : [
        {
            "name" : "Scene",
            "nodes" : [
                0
            ]
        }
    ],
    "nodes" : [
        {
            "mesh" : 0,
            "name" : "\ud050\ube0c.001",
            "scale" : [
                0.9776049256324768,
                1.2242053747177124,
                2.1232049465179443
            ],
            "translation" : [
                0.3931545317173004,
                1,
                -11.465808868408203
            ]
        }
    ],
    "meshes" : [
        {
            "name" : "\ud050\ube0c.001",
            "primitives" : [
                {
                    "attributes" : {
                        "POSITION" : 0,
                        "NORMAL" : 1,
                        "TEXCOORD_0" : 2
                    },
                    "indices" : 3
                }
            ]
        }
    ],
    "accessors" : [
        {
            "bufferView" : 0,
            "componentType" : 5126,
            "count" : 8001,
            "max" : [
                1.2191120386123657,
                1.017067551612854,
                0.6899999380111694
            ],
            "min" : [
                -0.9732365608215332,
                -0.6331173181533813,
                -0.899449348449707
            ],
            "type" : "VEC3"
        },
        {
            "bufferView" : 1,
            "componentType" : 5126,
            "count" : 8001,
            "type" : "VEC3"
        },
        {
            "bufferView" : 2,
            "componentType" : 5126,
            "count" : 8001,
            "type" : "VEC2"
        },
        {
            "bufferView" : 3,
            "componentType" : 5123,
            "count" : 19398,
            "type" : "SCALAR"
        }
    ],
    "bufferViews" : [
        {
            "buffer" : 0,
            "byteLength" : 96012,
            "byteOffset" : 0,
            "target" : 34962
        },
        {
            "buffer" : 0,
            "byteLength" : 96012,
            "byteOffset" : 96012,
            "target" : 34962
        },
        {
            "buffer" : 0,
            "byteLength" : 64008,
            "byteOffset" : 192024,
            "target" : 34962
        },
        {
            "buffer" : 0,
            "byteLength" : 38796,
            "byteOffset" : 256032,
            "target" : 34963
        }
    ],
    "buffers" : [
        {
            "byteLength" : 294828,
            "uri" : "data:application/octet-stream;base64,"
        }
    ]
}
