{
    "asset" : {
        "generator" : "Khronos glTF Blender I/O v3.3.32",
        "version" : "2.0"
    },
    "scene" : 0,
    "scenes" : [
        {
            "name" : "Scene",
            "nodes" : [
                0
            ]
        }
    ],
    "nodes" : [
        {
            "mesh" : 0,
            "name" : "Cube.004",
            "scale" : [
                1,
                1,
                1.4108847379684448
            ],
            "translation" : [
                0.015950573608279228,
                1,
                0.5524505376815796
            ]
        }
    ],
    "materials" : [
        {
            "doubleSided" : true,
            "name" : "Material",
            "pbrMetallicRoughness" : {
                "baseColorFactor" : [
                    0.800000011920929,
                    0.800000011920929,
                    0.800000011920929,
                    1
                ],
                "metallicFactor" : 0,
                "roughnessFactor" : 0.5
            }
        }
    ],
    "meshes" : [
        {
            "name" : "Cube.001",
            "primitives" : [
                {
                    "attributes" : {
                        "POSITION" : 0,
                        "NORMAL" : 1,
                        "TEXCOORD_0" : 2,
                        "TEXCOORD_1" : 3
                    },
                    "indices" : 4,
                    "material" : 0
                }
            ]
        }
    ],
    "accessors" : [
        {
            "bufferView" : 0,
            "componentType" : 5126,
            "count" : 7392,
            "max" : [
                -2.67419171333313,
                1.372114658355713,
                -6.899446964263916
            ],
            "min" : [
                -4.459257125854492,
                -1.280052661895752,
                -9.92076301574707
            ],
            "type" : "VEC3"
        },
        {
            "bufferView" : 1,
            "componentType" : 5126,
            "count" : 7392,
            "type" : "VEC3"
        },
        {
            "bufferView" : 2,
            "componentType" : 5126,
            "count" : 7392,
            "type" : "VEC2"
        },
        {
            "bufferView" : 3,
            "componentType" : 5126,
            "count" : 7392,
            "type" : "VEC2"
        },
        {
            "bufferView" : 4,
            "componentType" : 5123,
            "count" : 18942,
            "type" : "SCALAR"
        }
    ],
    "bufferViews" : [
        {
            "buffer" : 0,
            "byteLength" : 88704,
            "byteOffset" : 0,
            "target" : 34962
        },
        {
            "buffer" : 0,
            "byteLength" : 88704,
            "byteOffset" : 88704,
            "target" : 34962
        },
        {
            "buffer" : 0,
            "byteLength" : 59136,
            "byteOffset" : 177408,
            "target" : 34962
        },
        {
            "buffer" : 0,
            "byteLength" : 59136,
            "byteOffset" : 236544,
            "target" : 34962
        },
        {
            "buffer" : 0,
            "byteLength" : 37884,
            "byteOffset" : 295680,
            "target" : 34963
        }
    ],
    "buffers" : [
        {
            "byteLength" : 333564,
            "uri" : "data:application/octet-stream;base64,"
        }
    ]
}
