{
    "asset" : {
        "generator" : "Khronos glTF Blender I/O v3.3.32",
        "version" : "2.0"
    },
    "scene" : 0,
    "scenes" : [
        {
            "name" : "Scene",
            "nodes" : [
                0
            ]
        }
    ],
    "nodes" : [
        {
            "mesh" : 0,
            "name" : "Cube.003",
            "scale" : [
                1,
                1,
                1.4108847379684448
            ],
            "translation" : [
                0.015950573608279228,
                1,
                0.5524505376815796
            ]
        }
    ],
    "materials" : [
        {
            "doubleSided" : true,
            "name" : "Material",
            "pbrMetallicRoughness" : {
                "baseColorFactor" : [
                    0.800000011920929,
                    0.800000011920929,
                    0.800000011920929,
                    1
                ],
                "metallicFactor" : 0,
                "roughnessFactor" : 0.5
            }
        }
    ],
    "meshes" : [
        {
            "name" : "Cube.005",
            "primitives" : [
                {
                    "attributes" : {
                        "POSITION" : 0,
                        "NORMAL" : 1,
                        "TEXCOORD_0" : 2,
                        "TEXCOORD_1" : 3
                    },
                    "indices" : 4,
                    "material" : 0
                }
            ]
        }
    ],
    "accessors" : [
        {
            "bufferView" : 0,
            "componentType" : 5126,
            "count" : 1645,
            "max" : [
                -2.073275089263916,
                0.2500000298023224,
                -3.4596166610717773
            ],
            "min" : [
                -4.185004711151123,
                -1.25,
                -4.988255500793457
            ],
            "type" : "VEC3"
        },
        {
            "bufferView" : 1,
            "componentType" : 5126,
            "count" : 1645,
            "type" : "VEC3"
        },
        {
            "bufferView" : 2,
            "componentType" : 5126,
            "count" : 1645,
            "type" : "VEC2"
        },
        {
            "bufferView" : 3,
            "componentType" : 5126,
            "count" : 1645,
            "type" : "VEC2"
        },
        {
            "bufferView" : 4,
            "componentType" : 5123,
            "count" : 3426,
            "type" : "SCALAR"
        }
    ],
    "bufferViews" : [
        {
            "buffer" : 0,
            "byteLength" : 19740,
            "byteOffset" : 0,
            "target" : 34962
        },
        {
            "buffer" : 0,
            "byteLength" : 19740,
            "byteOffset" : 19740,
            "target" : 34962
        },
        {
            "buffer" : 0,
            "byteLength" : 13160,
            "byteOffset" : 39480,
            "target" : 34962
        },
        {
            "buffer" : 0,
            "byteLength" : 13160,
            "byteOffset" : 52640,
            "target" : 34962
        },
        {
            "buffer" : 0,
            "byteLength" : 6852,
            "byteOffset" : 65800,
            "target" : 34963
        }
    ],
    "buffers" : [
        {
            "byteLength" : 72652,
            "uri" : "data:application/octet-stream;base64,"
        }
    ]
}
